<?xml version="1.0" encoding="UTF-8" standalone="no"?>
<svg
   xmlns:dc="http://purl.org/dc/elements/1.1/"
   xmlns:cc="http://creativecommons.org/ns#"
   xmlns:rdf="http://www.w3.org/1999/02/22-rdf-syntax-ns#"
   xmlns:svg="http://www.w3.org/2000/svg"
   xmlns="http://www.w3.org/2000/svg"
   xmlns:sodipodi="http://sodipodi.sourceforge.net/DTD/sodipodi-0.dtd"
   xmlns:inkscape="http://www.inkscape.org/namespaces/inkscape"
   width="300"
   height="152"
   viewBox="0 0 1000 505"
   version="1.0"
   id="svg2"
   sodipodi:version="0.32"
   inkscape:version="0.46"
   sodipodi:docname="1000px-KAUST_Logo.svg"
   inkscape:output_extension="org.inkscape.output.svg.inkscape">
  <metadata
     id="metadata76">
    <rdf:RDF>
      <cc:Work
         rdf:about="">
        <dc:format>image/svg+xml</dc:format>
        <dc:type
           rdf:resource="http://purl.org/dc/dcmitype/StillImage" />
      </cc:Work>
    </rdf:RDF>
  </metadata>
  <defs
     id="defs74">
    <inkscape:perspective
       sodipodi:type="inkscape:persp3d"
       inkscape:vp_x="0 : 315.625 : 1"
       inkscape:vp_y="0 : 1000 : 0"
       inkscape:vp_z="1250 : 315.625 : 1"
       inkscape:persp3d-origin="625 : 210.41667 : 1"
       id="perspective78" />
  </defs>
  <sodipodi:namedview
     inkscape:window-height="669"
     inkscape:window-width="640"
     inkscape:pageshadow="2"
     inkscape:pageopacity="0.0"
     guidetolerance="10.0"
     gridtolerance="10.0"
     objecttolerance="10.0"
     borderopacity="1.0"
     bordercolor="#666666"
     pagecolor="#ffffff"
     id="base"
     showgrid="false"
     inkscape:zoom="0.4352"
     inkscape:cx="625"
     inkscape:cy="315.625"
     inkscape:window-x="161"
     inkscape:window-y="95"
     inkscape:current-layer="svg2" />
  <g
     id="#f9c213ff">
    <path
       d="M 286.48,0 L 300.3,0 C 311.92,1.12 323.47,3.78 334.04,8.8 C 351.11,16.87 364.27,31.62 373.01,48.12 C 381.93,65.05 386.48,84 388.12,102.98 C 362.56,82.64 329.37,73.43 296.98,74.13 C 260.2,75.38 223.77,82.2 188.5,92.52 C 197.05,70.21 208.97,48.93 225.43,31.48 C 241.13,14.17 263.01,2.02 286.48,0 z"
       id="path5"
       style="opacity:1;fill:#f9c213" />
    <path
       d="M 264.98,89.04 C 284.88,86.56 305.18,85.35 325.08,88.55 C 336.55,90.34 347.74,93.81 358.25,98.73 C 369.21,103.95 378.92,111.39 388.05,119.31 C 387.81,123.89 387.2,128.44 386.4,132.95 C 381.39,129.97 377.51,125.54 372.97,121.96 C 350.89,103.9 322.39,94.44 294.01,93.93 C 262.95,93.18 232.07,98.44 202.05,106.04 C 195.13,107.77 188.46,110.42 181.4,111.58 C 182.71,109.68 183.55,106.92 186.03,106.23 C 211.75,98.15 238.2,92.27 264.98,89.04 z"
       id="path7"
       style="opacity:1;fill:#f9c213" />
    <path
       d="M 182.95,123.07 C 209.51,114.22 237.08,108.37 264.94,105.63 C 281.6,104.96 298.45,103.9 314.96,106.83 C 341.08,111.35 365.38,125.42 382.23,145.91 C 380.57,150.14 378.92,154.38 377.28,158.62 C 370.09,150.81 362.71,143.04 354.08,136.8 C 334.6,122.69 310.91,115.18 287.04,113.49 C 270.28,112.09 253.5,114.04 236.91,116.27 C 216.91,119.09 197.34,124.28 178.08,130.26 C 177.61,126.91 179.77,123.96 182.95,123.07 z"
       id="path9"
       style="opacity:1;fill:#f9c213" />
    <path
       d="M 250,123.98 C 275.23,120.85 301.61,121.91 325.42,131.49 C 343.12,138.54 358.72,150.46 370.63,165.27 C 372.65,169.95 369.01,175.23 364.79,177.26 C 363.46,176.26 362.42,174.95 361.31,173.73 C 343.09,153.37 317.94,139.39 290.95,135.01 C 275.09,132.33 258.9,132.59 242.91,133.69 C 222.24,135.72 201.67,139.62 182.1,146.67 C 181.4,144.32 180.67,141.99 179.96,139.66 C 202.66,131.95 226.16,126.52 250,123.98 z"
       id="path11"
       style="opacity:1;fill:#f9c213" />
    <path
       d="M 185.75,153.33 C 214.84,144.23 245.45,138.89 276,141 C 308.57,142.85 340.72,158.61 360.35,184.98 C 357.34,188.03 354.34,191.08 351.32,194.11 C 341.5,182.61 329.51,172.91 315.97,166.13 C 291.59,154.16 263.78,150.64 236.9,152.63 C 221.28,153.74 205.83,156.63 190.7,160.61 C 189.04,158.19 187.39,155.76 185.75,153.33 z"
       id="path13"
       style="opacity:1;fill:#f9c213" />
    <path
       d="M 196.04,165.7 C 224.05,158.68 253.61,155.49 282.14,161.22 C 304.12,165.59 325.49,175.54 341.07,191.93 C 342.88,193.93 345.37,195.89 345.23,198.88 C 341.81,201.22 338.2,203.27 334.5,205.14 C 318.17,186.65 293.91,177.46 270.02,173.89 C 258.43,172.41 246.75,170.86 235.03,171.43 C 225.03,171.74 215.12,173.19 205.23,174.62 C 201.98,171.85 198.78,168.99 196.04,165.7 z"
       id="path15"
       style="opacity:1;fill:#f9c213" />
    <path
       d="M 210.85,178.58 C 240.47,174.2 271.5,175.61 299.61,186.51 C 310.82,191.38 322.23,197.32 329.64,207.39 C 309.74,214.84 287.69,212.33 267.78,206.24 C 247.54,200.05 227.98,191.11 210.85,178.58 z"
       id="path17"
       style="opacity:1;fill:#f9c213" />
  </g>
  <g
     id="#bece1fff">
    <path
       d="M 32.99,152.05 C 56.41,136.72 84.35,127.31 112.53,128.67 C 103.72,137.19 94.19,145.19 87.34,155.47 C 75.92,171.78 70.51,192.19 72.43,212.02 C 74.96,242 85.28,270.74 98.48,297.58 C 71.42,292.15 45.33,279.96 25.38,260.66 C 11.57,247.46 1.87,229.6 0,210.44 L 0,200.46 C 2.09,180 16.48,163.15 32.99,152.05 z"
       id="path20"
       style="opacity:1;fill:#bece1f" />
    <path
       d="M 118.88,139.87 C 123.14,136.8 127.19,132.58 132.9,132.9 C 130.81,137.1 126.29,138.94 122.84,141.78 C 106.86,153.77 93.25,170.16 88.38,189.88 C 84.97,201.77 86.73,214.21 86.56,226.37 C 84.66,220.78 84.67,214.81 84.52,208.98 C 84.37,201.5 84.2,193.85 86.41,186.61 C 91.35,167.82 103.76,151.72 118.88,139.87 z"
       id="path22"
       style="opacity:1;fill:#bece1f" />
    <path
       d="M 113.85,164.78 C 122.34,154.89 133.02,147.17 144.09,140.42 C 145.48,140.8 146.86,141.19 148.25,141.58 C 148.38,142.15 148.65,143.28 148.78,143.85 C 130.1,154.36 112.49,169.09 104.33,189.46 C 98.85,202.03 98.9,216.15 100.68,229.51 C 104,248.36 110.68,266.53 119.5,283.48 C 121.67,287.6 124.08,291.66 125.24,296.22 C 121.09,292.83 119.21,287.65 116.85,283.02 C 105.57,259.94 97.22,234.88 96.73,208.99 C 96.63,192.75 103.17,176.9 113.85,164.78 z"
       id="path24"
       style="opacity:1;fill:#bece1f" />
    <path
       d="M 151.66,152.82 C 153.34,151.84 155.8,150.76 157.38,152.52 C 157.99,153.86 158.43,155.28 158.9,156.68 C 141.38,165.39 125.29,178.9 117.42,197.19 C 110.38,213.29 112.63,231.71 117.61,248.06 C 121.08,259.3 126.22,269.93 131.72,280.29 C 133.21,283.11 135.05,285.77 136.08,288.82 C 131.78,289.67 130.48,284.92 128.84,282.02 C 117.67,260.04 107.83,236.15 108.9,211.03 C 109.24,194.19 118.69,178.9 130.85,167.82 C 137.14,161.99 144.23,157.08 151.66,152.82 z"
       id="path26"
       style="opacity:1;fill:#bece1f" />
    <path
       d="M 136.82,181.85 C 144.23,174.11 153.21,168.03 162.72,163.17 C 163.6,165.66 164.47,168.16 165.33,170.66 C 151.48,178.43 138.3,188.9 131.27,203.49 C 125.84,214.45 125.4,227.25 127.97,239.04 C 131,253.16 137.8,266.08 144.92,278.51 C 143.35,279.09 141.79,279.67 140.23,280.25 C 130.17,261.28 120.49,240.91 120.71,218.95 C 120.56,204.98 127.17,191.68 136.82,181.85 z"
       id="path28"
       style="opacity:1;fill:#bece1f" />
    <path
       d="M 149.36,189.32 C 154.33,184.63 160.04,180.81 165.95,177.41 C 166.82,180.9 167.01,184.5 167.03,188.09 C 153.05,195.7 141.71,209.65 140.38,225.9 C 138.75,238.96 143.94,251.56 149.94,262.86 C 151.46,265.43 150.97,270.27 147.21,270.26 C 138.63,254.98 131.46,237.79 133.16,219.89 C 133.95,207.97 140.73,197.25 149.36,189.32 z"
       id="path30"
       style="opacity:1;fill:#bece1f" />
    <path
       d="M 146.39,219.1 C 149.47,208.03 157.82,199.31 167.16,193.05 C 166.09,215.77 162.04,238.46 153.83,259.72 C 146.6,247.74 142.2,232.91 146.39,219.1 z"
       id="path32"
       style="opacity:1;fill:#bece1f" />
  </g>
  <g
     id="#ee850fff">
    <path
       d="M 422.31,204.25 C 424.61,204.32 427.18,203.68 429.34,204.33 C 433.76,229.29 433.64,254.84 431.78,280.05 C 429.17,311 421.59,342.07 405.52,368.91 C 402.93,368.16 400.34,367.38 397.76,366.59 C 400.45,359.98 404.9,354.31 407.85,347.83 C 422.05,318.75 426.3,286 426.89,253.97 C 427.52,237.26 424.56,220.74 422.31,204.25 z"
       id="path35"
       style="opacity:1;fill:#ee850f" />
    <path
       d="M 441.51,203.28 C 463.11,204.93 485.57,210.27 502.46,224.57 C 515.82,235.43 522.64,252.98 522.11,269.98 C 521.55,284.01 518.99,298 514.17,311.21 C 507.34,329.99 495.29,347.36 478.35,358.32 C 460.75,369.62 439.2,373.29 418.58,372.01 C 421.85,363.43 426.75,355.57 429.73,346.88 C 441.77,314.73 445.58,280.11 445.42,245.97 C 445.58,231.65 443.58,217.42 441.51,203.28 z"
       id="path37"
       style="opacity:1;fill:#ee850f" />
    <path
       d="M 402.19,208.24 C 405.22,207.55 408.25,206.87 411.29,206.19 C 417.69,235.95 417.43,266.88 412.54,296.84 C 409.04,319.47 401.08,341.55 388.24,360.58 C 384.85,359.5 381.93,357.47 379.26,355.18 C 397.26,332.44 405.14,303.4 407.49,274.91 C 409.37,252.63 408.59,229.79 402.19,208.24 z"
       id="path39"
       style="opacity:1;fill:#ee850f" />
    <path
       d="M 383.63,214.01 C 386.92,212.76 390.22,210.97 393.85,211.45 C 401.55,240.54 400.29,271.29 394.41,300.59 C 390.37,318.05 383.68,335.34 372.07,349.21 C 369.5,346.19 366.98,343.15 364.55,340.04 C 381.47,319.72 388.31,292.91 389.47,266.94 C 390.64,249.14 389.04,231.06 383.63,214.01 z"
       id="path41"
       style="opacity:1;fill:#ee850f" />
    <path
       d="M 366.32,222.08 C 369.74,220.4 373.01,218.45 376.47,216.85 C 381.07,230.69 382.68,245.39 382.15,259.93 C 381.93,285.93 375.91,312.79 360.14,333.94 C 357.87,330.37 354.51,327.25 353.68,322.96 C 353.26,321.17 354.17,319.55 355.13,318.13 C 366.59,300.76 371.48,279.68 371.35,259.03 C 371.37,246.55 369.38,234.16 366.32,222.08 z"
       id="path43"
       style="opacity:1;fill:#ee850f" />
    <path
       d="M 349.82,234.86 C 353.14,231.41 356.77,228.23 360.95,225.88 C 366.69,247.93 367.35,271.71 360.34,293.55 C 358.02,300.44 355.16,307.23 351.11,313.29 C 350.48,313.33 349.24,313.41 348.61,313.45 C 346.27,307.88 342.35,301.55 345.33,295.46 C 354.44,276.69 354.28,254.85 349.82,234.86 z"
       id="path45"
       style="opacity:1;fill:#ee850f" />
    <path
       d="M 337.98,258 C 338.99,251.09 341.79,244.46 346.13,238.98 C 349.92,256.94 349.09,276.23 341.72,293.19 C 338.53,281.8 336.14,269.83 337.98,258 z"
       id="path47"
       style="opacity:1;fill:#ee850f" />
  </g>
  <g
     id="#938982ff">
    <path
       d="M 851.32,256.25 C 857.9,249.31 867.73,246.97 876.95,246.35 C 887.15,245.68 897.3,247.36 907.29,249.28 C 907.32,254.48 907.21,259.69 907.23,264.9 C 898.42,260.64 888.93,257.17 879.03,257.12 C 873.4,257.19 867.46,259.59 864.36,264.47 C 861.68,268.69 861.94,274.29 864.46,278.51 C 867.37,283.59 872.64,286.59 877.47,289.59 C 888.39,296.02 900.83,300.84 909.07,310.91 C 916.81,320.34 917,334.27 912.07,345.04 C 906.81,355.4 895.09,360.61 884.02,361.79 C 871.07,362.79 857.7,362.38 845.4,357.85 C 845.57,352.07 845.58,346.28 845.67,340.5 C 855.97,345.81 867.09,351 878.97,350.38 C 884.41,349.91 890.58,348.74 894.12,344.14 C 899.03,337.62 897.98,327.52 892.02,322 C 880.2,310.76 863.03,307.12 851.9,295.01 C 842.1,284.73 841.3,266.64 851.32,256.25 z"
       id="path50"
       style="opacity:1;fill:#938982" />
    <path
       d="M 570.96,248.13 C 576.71,247.68 582.48,247.89 588.24,248.09 C 588.29,264.38 588.09,280.67 588.43,296.96 C 600.93,281.1 611.27,263.66 623.74,247.77 C 629.06,247.93 634.38,247.96 639.71,248.02 C 628.64,265.55 616.22,282.17 604.23,299.07 C 617.69,312.51 625.49,330.16 636.32,345.56 C 638.9,349.08 641.25,353.09 645.28,355.14 C 657.23,319.29 668.64,283.24 681.52,247.71 C 687.43,247.99 693.36,247.96 699.28,247.79 C 712.72,285.22 724.87,323.1 737.34,360.86 C 731.18,360.87 725.03,360.86 718.89,360.86 C 714.98,349.83 711.94,338.52 708.29,327.41 C 696.21,327.38 684.13,327.43 672.05,327.38 C 671.5,327.46 670.4,327.63 669.85,327.71 C 665.88,338.4 663.62,349.67 659.25,360.23 C 651.88,361.6 644.37,360.47 636.94,360.87 C 633.39,360.8 629.06,361.6 626.42,358.61 C 612.13,342.39 604.97,320.83 588.71,306.19 C 587.72,324.37 588.59,342.59 588.16,360.79 C 582.22,360.97 576.29,360.8 570.36,360.54 C 570.34,324.36 570.35,288.18 570.36,252 C 570.27,250.67 570.61,249.39 570.96,248.13 M 688.54,266.41 C 683.41,283 678.48,299.66 673.36,316.27 C 683.85,316.29 694.35,316.23 704.84,316.3 C 700.61,301.51 695.97,286.83 691.67,272.06 C 691.14,269.92 689.93,268.07 688.54,266.41 z"
       id="path52"
       style="opacity:1;fill:#938982" />
    <path
       d="M 748.43,320.05 C 748.43,296 748.32,271.94 748.6,247.89 C 754.65,247.98 760.7,247.91 766.76,247.94 C 766.79,273.94 766.84,299.95 766.84,325.95 C 766.9,333.15 767.42,341.05 772.12,346.89 C 777.05,352.45 785.29,353.14 792.18,351.85 C 796.11,351.34 799.86,349.31 802.11,345.98 C 806.09,340.16 806.59,332.81 806.65,325.97 C 806.73,299.96 806.74,273.95 806.77,247.94 C 812.75,247.93 818.72,247.84 824.71,247.79 C 825.46,272.18 824.94,296.58 825.06,320.98 C 825.06,332.11 824.09,344.57 816.04,353.08 C 807.47,361.59 794.53,362.7 783.09,362.24 C 772.91,362.14 761.84,358.98 755.43,350.55 C 749.18,341.74 748.48,330.5 748.43,320.05 z"
       id="path54"
       style="opacity:1;fill:#938982" />
    <path
       d="M 921.54,248.1 C 945.65,247.78 969.76,247.88 993.87,247.94 C 993.88,251.65 993.88,255.35 993.88,259.06 C 984.92,259.09 975.96,259.06 967,259 C 966.92,292.78 966.94,326.57 967.07,360.35 C 960.95,361 954.79,360.86 948.66,360.79 C 948.4,326.79 949.03,292.79 948.22,258.8 C 939.35,259.05 930.47,258.94 921.6,259.08 C 921.59,255.42 921.53,251.76 921.54,248.1 z"
       id="path56"
       style="opacity:1;fill:#938982" />
  </g>
  <g
     id="#139da7ff">
    <path
       d="M 184.78,295.48 C 202.33,290.17 220.65,285.67 239.13,287.45 C 266.78,289.81 294.82,298.95 315.54,318.01 C 277.36,334.28 231.4,329.01 197.05,306.06 C 192.64,302.96 187.47,300.39 184.78,295.48 z"
       id="path59"
       style="opacity:1;fill:#139da7" />
    <path
       d="M 171.46,300.97 C 173.97,300 176.49,299.04 178.98,298.02 C 202.41,318.35 232.69,331.73 263.98,331.79 C 282.68,332.23 301.85,329.8 318.87,321.62 C 322.51,325.58 325.85,329.8 328.77,334.31 C 309.45,345.08 286.75,347.86 264.96,346.69 C 235.38,345.95 207.16,332.98 184.56,314.39 C 179.85,310.29 174.66,306.46 171.46,300.97 z"
       id="path61"
       style="opacity:1;fill:#139da7" />
    <path
       d="M 159.09,307.25 C 161.14,306.27 163.21,305.34 165.3,304.45 C 187.35,328.38 216.88,345.83 249.08,351.49 C 277.06,356.13 306.58,352.5 332.11,339.95 C 333.94,344.29 335.69,348.66 337.34,353.07 C 312.89,366.21 284.04,369.25 256.81,365.57 C 218.15,359.85 184.01,336.61 159.09,307.25 z"
       id="path63"
       style="opacity:1;fill:#139da7" />
    <path
       d="M 151.29,310.3 C 155.79,314.59 159.87,319.29 164.12,323.82 C 187.5,348.1 217.89,366.23 251.23,372.47 C 261.01,374.47 271.04,374.7 280.99,374.61 C 301.05,374.28 321.3,370.19 339.14,360.77 C 340.08,365.2 340.82,369.67 341.4,374.16 C 314.54,386.9 283.57,389.81 254.51,384.26 C 227.79,379.21 203.21,365.86 182.42,348.59 C 175.57,342.82 168.86,336.81 162.96,330.04 C 158.3,324.88 153.37,319.86 149.79,313.85 C 150.29,312.66 150.79,311.48 151.29,310.3 z"
       id="path65"
       style="opacity:1;fill:#139da7" />
    <path
       d="M 139.22,317.75 C 143.4,320.51 146.11,324.8 149.34,328.52 C 170.72,353.95 197.89,375.13 229.23,386.7 C 265.22,400.13 306.25,399.24 341.67,384.42 C 341.52,388.6 341.35,392.79 341.17,396.97 C 311.95,407.96 279.36,409.67 249.12,401.95 C 220.99,394.76 195.57,379.17 174.19,359.78 C 162.46,349.13 151.86,337.26 142.34,324.6 C 140.75,322.61 139.85,320.19 139.22,317.75 z"
       id="path67"
       style="opacity:1;fill:#139da7" />
    <path
       d="M 129.9,326.73 C 133.14,329.37 135.19,333.07 137.78,336.29 C 158.84,363.39 185.51,386.57 216.66,401.31 C 241.32,413.04 268.8,419.18 296.14,417.58 C 310.96,416.82 325.63,413.94 339.7,409.26 C 339.41,412.54 339.12,415.82 338.83,419.1 C 310.91,428.3 280.39,428.71 251.98,421.49 C 223.2,414.2 196.98,398.7 174.77,379.23 C 157.51,363.9 142.27,346.22 129.9,326.73 z"
       id="path69"
       style="opacity:1;fill:#139da7" />
    <path
       d="M 114.49,341.47 C 116.35,339.27 118.63,337.48 121,335.87 C 140.06,363.91 163.84,389.05 192.24,407.74 C 207.05,417.47 223.08,425.4 239.94,430.88 C 270.53,440.66 303.71,440.87 334.88,433.72 C 329.78,450.97 321.2,467.59 308.01,480.04 C 296.41,491.06 281.16,497.82 265.43,500.24 C 250.28,502.63 234.71,501.35 219.89,497.59 C 197.33,492.38 175.44,484.1 155.32,472.62 C 134.76,460.88 115.09,445.82 103.11,424.98 C 94.98,410.58 90.56,393.13 94.75,376.8 C 98.03,363.5 105.72,351.8 114.49,341.47 z"
       id="path71"
       style="opacity:1;fill:#139da7" />
  </g>
</svg>
